<?xml version="1.0" encoding="UTF-8" standalone="no"?>
<svg
   xmlns:dc="http://purl.org/dc/elements/1.1/"
   xmlns:cc="http://creativecommons.org/ns#"
   xmlns:rdf="http://www.w3.org/1999/02/22-rdf-syntax-ns#"
   xmlns:svg="http://www.w3.org/2000/svg"
   xmlns="http://www.w3.org/2000/svg"
   xmlns:sodipodi="http://sodipodi.sourceforge.net/DTD/sodipodi-0.dtd"
   xmlns:inkscape="http://www.inkscape.org/namespaces/inkscape"
   id="emoji"
   viewBox="0 0 32 32"
   version="1.1"
   sodipodi:docname="actualizar.svg"
   width="32"
   height="32"
   inkscape:version="1.0.1 (0767f8302a, 2020-10-17)">
  <metadata
     id="metadata20">
    <rdf:RDF>
      <cc:Work
         rdf:about="">
        <dc:format>image/svg+xml</dc:format>
        <dc:type
           rdf:resource="http://purl.org/dc/dcmitype/StillImage" />
        <dc:title></dc:title>
      </cc:Work>
    </rdf:RDF>
  </metadata>
  <defs
     id="defs18" />
  <sodipodi:namedview
     pagecolor="#ffffff"
     bordercolor="#666666"
     borderopacity="1"
     objecttolerance="10"
     gridtolerance="10"
     guidetolerance="10"
     inkscape:pageopacity="0"
     inkscape:pageshadow="2"
     inkscape:window-width="1366"
     inkscape:window-height="731"
     id="namedview16"
     showgrid="false"
     inkscape:zoom="7.4855108"
     inkscape:cx="19.215422"
     inkscape:cy="19.96903"
     inkscape:window-x="0"
     inkscape:window-y="0"
     inkscape:window-maximized="1"
     inkscape:current-layer="emoji" />
  <g
     id="color"
     transform="matrix(0.39188074,0,0,0.39188074,1.8521256,1.8922934)">
    <path
       fill="#3f3f3f"
       stroke="none"
       stroke-linecap="round"
       stroke-linejoin="round"
       stroke-miterlimit="10"
       stroke-width="2"
       d="m 20.7713,30.421 -3.7092,4.0991 c 0.6829,-7.7072 5.6421,-14.3554 12.9628,-17.0134 2.1314,-0.774 4.3519,-1.1663 6.5997,-1.1663 5.4828,0 10.7603,2.375 14.4775,6.5161 l 0.61,0.6795 3.8565,-3.6084 -0.61,-0.6795 C 50.2532,14.0063 43.5725,11 36.6282,11 33.781,11 30.9691,11.4963 28.2726,12.4755 19.0651,15.819 12.7121,24.3037 11.8404,34.059 L 8.549,30.421 5.205,33.5375 14.6596,43.9877 24.1133,33.5384 Z"
       id="path2" />
    <path
       fill="#3f3f3f"
       stroke="none"
       stroke-linecap="round"
       stroke-linejoin="round"
       stroke-miterlimit="10"
       stroke-width="2"
       d="m 67,38.3473 -9.4546,-10.4502 -9.4537,10.4493 3.3421,3.1174 3.6932,-4.0815 c -0.6491,7.749 -5.6209,14.4422 -12.9728,17.1119 -2.1306,0.7731 -4.3501,1.1654 -6.5997,1.1654 -5.4828,0 -10.7603,-2.375 -14.4775,-6.5157 l -0.61,-0.6795 -3.8565,3.6079 0.61,0.6795 C 21.925,57.9933 28.6066,61 35.5509,61 38.399,61 41.21,60.5032 43.9065,59.525 53.1546,56.1676 59.5259,47.6225 60.3528,37.8128 l 3.3032,3.6511 z"
       id="path4" />
  </g>
  <g
     id="hair"
     transform="matrix(0.39188074,0,0,0.39188074,-4.8912444,-2.1879649)" />
  <g
     id="skin"
     transform="matrix(0.39188074,0,0,0.39188074,-4.8912444,-2.1879649)" />
  <g
     id="skin-shadow"
     transform="matrix(0.39188074,0,0,0.39188074,-4.8912444,-2.1879649)" />
  <g
     id="line"
     transform="matrix(0.39188074,0,0,0.39188074,1.8521256,1.8922934)">
    <path
       fill="none"
       stroke="#000000"
       stroke-linecap="round"
       stroke-linejoin="round"
       stroke-miterlimit="10"
       stroke-width="2"
       d="m 20.7713,30.421 -3.7092,4.0991 c 0.6829,-7.7072 5.6421,-14.3554 12.9628,-17.0134 2.1314,-0.774 4.3519,-1.1663 6.5997,-1.1663 5.4828,0 10.7603,2.375 14.4775,6.5161 l 0.61,0.6795 3.8565,-3.6084 -0.61,-0.6795 C 50.2532,14.0063 43.5725,11 36.6282,11 33.781,11 30.9691,11.4963 28.2726,12.4755 19.0651,15.819 12.7121,24.3037 11.8404,34.059 L 8.549,30.421 5.205,33.5375 14.6596,43.9877 24.1133,33.5384 Z"
       id="path10" />
    <path
       fill="none"
       stroke="#000000"
       stroke-linecap="round"
       stroke-linejoin="round"
       stroke-miterlimit="10"
       stroke-width="2"
       d="m 67,38.3473 -9.4546,-10.4502 -9.4537,10.4493 3.3421,3.1174 3.6932,-4.0815 c -0.6491,7.749 -5.6209,14.4422 -12.9728,17.1119 -2.1306,0.7731 -4.3501,1.1654 -6.5997,1.1654 -5.4828,0 -10.7603,-2.375 -14.4775,-6.5157 l -0.61,-0.6795 -3.8565,3.6079 0.61,0.6795 C 21.925,57.9933 28.6066,61 35.5509,61 38.399,61 41.21,60.5032 43.9065,59.525 53.1546,56.1676 59.5259,47.6225 60.3528,37.8128 l 3.3032,3.6511 z"
       id="path12" />
  </g>
</svg>
